<?xml version="1.0" standalone="no"?>
<!DOCTYPE svg PUBLIC "-//W3C//DTD SVG 1.1//EN" "http://www.w3.org/Graphics/SVG/1.1/DTD/svg11.dtd" >
<svg xmlns="http://www.w3.org/2000/svg">
<metadata>
This is a custom SVG webfont generated by Font Squirrel.
Copyright   : c 2003 Nate Piekos  wwwblambotcom
</metadata>
<defs>
<font id="AleandWenchesBBRegular" horiz-adv-x="802" >
<font-face units-per-em="2048" ascent="1638" descent="-410" />
<missing-glyph horiz-adv-x="500" />
<glyph unicode=" " />
<glyph unicode="!" horiz-adv-x="696" d="M184 148q0 32 56 73t92 41q40 0 92 -52l122 -124q24 -24 40 -54q8 -16 8 -24q0 -32 -57 -72t-91 -40q-40 0 -92 52l-122 122q-48 48 -48 78zM230 492q0 12 4 28q20 70 136 96q36 0 36 40q0 30 -22 84l-76 186q-28 148 -28 288q0 46 4 92q10 182 264 224q28 4 56 4h20 q20 -2 20 -24q0 -14 -8 -34q-30 -78 -146 -94q-16 -4 -16 -50q0 -28 6 -72q10 -78 42 -248q26 -140 26 -272q0 -34 -2 -66q-8 -156 -216 -202q-36 -8 -66 -8h-12q-22 2 -22 28z" />
<glyph unicode="&#x22;" horiz-adv-x="858" d="M142 1438q-2 56 118 56q124 0 124 -56v-14q0 -96 -24 -288q-18 -166 -18 -268v-19v-14v-5q0 -54 -96 -54q-94 0 -94 54v14q0 12 1 42t1 76q0 74 -2 166zM522 1440q0 54 120 54q124 0 124 -56v-16q0 -98 -22 -282q-20 -174 -20 -276v-16v-13v-5q0 -54 -96 -54 q-94 0 -94 54v10q0 8 1 29t1 55q0 122 -7 316t-7 200z" />
<glyph unicode="#" horiz-adv-x="1562" d="M8 348q0 20 26 60q50 76 152 76q12 0 24 -2q36 -4 110 -10l114 -8l-2 242q-124 4 -292 18q-48 4 -72 16q-10 6 -10 20q0 22 24 58q54 76 148 76q16 0 32 -2l170 -16l-2 260l-138 -24q-22 -4 -46 -4l-30 2q-20 2 -20 24q0 16 10 42q22 54 58 76q28 14 92 26l212 36 q26 4 42 4q12 0 20 -2q14 -6 14 -44l2 -416q80 -8 158 -14l146 -14l-2 304l-84 -18q-32 -8 -58 -8q-10 0 -20 2q-20 2 -20 28q0 14 6 36q26 82 142 106l164 34q32 6 50 6q10 0 16 -2q16 -6 16 -44l4 -466q68 -6 78 -6v18q0 98 100 138q40 16 64 16t32 -16q14 -30 18 -84 q-12 -90 -292 -130l2 -340q124 -12 146 -12h4v10q0 56 20 88t80 58q40 16 64 16q22 0 30 -16q16 -32 20 -74v-10q-8 -96 -362 -136v-168q0 -70 -21 -103t-85 -57q-38 -14 -62 -14t-32 14q-14 32 -14 76l-2 232q-144 -12 -302 -12l2 -136v-10q0 -58 -20 -92q-24 -34 -88 -58 q-36 -14 -60 -14q-16 0 -24 6q-20 16 -22 84l-2 222q-156 2 -344 18q-48 4 -72 16q-12 4 -12 18zM648 704l2 -258q8 0 302 -26l-2 296q-142 -12 -302 -12z" />
<glyph unicode="$" horiz-adv-x="1448" d="M90 1012q0 48 30 96q118 186 500 216l-2 98l-138 -22q-32 -6 -56 -6q-12 0 -22 2q-18 2 -18 24q0 16 10 44q32 82 150 102l212 36q22 4 38 4t24 -4q12 -6 12 -42l4 -228q228 -8 440 -60q44 -10 48 -22q2 -12 -22 -56q-12 -18 -40 -70l-54 -100q-56 -104 -154 -110 q-36 -2 -53 5t-13 23q4 32 26 72l56 100q2 2 4 6q-120 26 -234 36l6 -418q368 -146 460 -288q32 -50 32 -100q0 -46 -26 -92q-58 -102 -212 -174q-102 -48 -240 -74l2 -116v-10q0 -58 -20 -92q-24 -36 -88 -60q-34 -14 -56 -14q-18 0 -28 8q-20 16 -22 84l-4 176 q-70 -6 -138 -6q-118 0 -236 16q-30 4 -33 6t-9 26q-16 82 -52 248q-6 24 -6 48q0 20 4 38q6 46 84 82q42 20 68 20q22 0 32 -14q20 -30 44 -136q10 -52 32 -156q102 -12 208 -12l-8 454q-420 166 -514 318q-28 46 -28 94zM302 1094q0 -18 18 -50q62 -100 308 -214l-6 334 q-180 -8 -282 -44q-30 -10 -36 -16q-2 -4 -2 -10zM848 506l6 -342q136 18 222 58q38 18 44 28q4 8 4 18q0 24 -22 54q-58 84 -254 184z" />
<glyph unicode="&#x26;" horiz-adv-x="1584" d="M62 492q0 222 244 326q-42 24 -54 44q-40 44 -40 100q0 44 26 96q66 132 248 216q164 78 326 78q138 0 250 -74q60 -40 60 -70q0 -28 -50 -70q-56 -48 -94 -48q-8 0 -14 2q-38 8 -80 36q-82 52 -176 52h-26q-194 -14 -250 -108q-8 -16 -8 -32q0 -66 152 -110 q88 -26 268 -32q42 -2 42 -32q0 -20 -22 -56q-34 -54 -50 -66q-22 -18 -62 -18q-10 0 -22 2h-22q-434 0 -436 -156v-2q0 -152 202 -318q186 -152 366 -152h18q176 8 176 372v40q-224 -64 -458 -98q-22 -2 -41 -2t-35 2q-20 2 -20 22q0 16 12 44q36 86 152 102q66 8 202 30 l200 32q20 32 80 64q38 20 64 20q16 0 26 -6q20 -14 26 -44q140 24 154 34q-10 32 -10 66v18q2 42 80 82q44 24 72 24q20 0 32 -12q24 -30 36 -72q2 -4 2 -16q0 -104 -360 -224v-20q0 -260 -100 -418q-124 -194 -382 -208h-32q-224 0 -446 176q-226 180 -226 384z" />
<glyph unicode="'" horiz-adv-x="468" d="M126 1438q-2 56 118 56q124 0 124 -56v-14q0 -96 -24 -288q-18 -166 -18 -268v-19v-14v-5q0 -54 -96 -54q-94 0 -94 54v14q0 12 1 42t1 76q0 74 -2 166z" />
<glyph unicode="(" horiz-adv-x="690" d="M36 630v10q0 466 526 910q32 26 70 48q14 6 28 6q26 0 52 -16q32 -20 32 -40q0 -10 -8 -20q-24 -34 -54 -58q-432 -362 -432 -746v-10q6 -396 430 -808q50 -48 50 -78q0 -34 -56 -74t-92 -40q-38 0 -92 52q-448 438 -454 864z" />
<glyph unicode=")" horiz-adv-x="796" d="M4 -228q0 8 6 18q16 26 56 58q432 358 432 746q0 392 -432 818q-50 48 -50 78q0 32 57 73t91 41q40 0 94 -52q446 -444 454 -866v-10q0 -466 -528 -906q-40 -34 -70 -50q-14 -6 -28 -6q-24 0 -52 18q-30 18 -30 40z" />
<glyph unicode="*" horiz-adv-x="1160" d="M46 1282q0 30 48 72q56 48 96 48q6 0 12 -2q46 -10 82 -34l192 -120l4 120q4 70 25 102t85 56q40 14 62 14q24 0 30 -16q14 -36 12 -76l-8 -246l234 146q42 26 74 38q8 2 16 2q28 0 46 -32q12 -20 12 -36q0 -20 -14 -36q-12 -16 -64 -48l-248 -156l262 -164 q64 -40 64 -68q0 -26 -50 -70q-54 -48 -92 -48q-8 0 -16 2q-44 10 -82 34l-152 96l-4 -120q-2 -66 -25 -100t-87 -58q-38 -14 -60 -14q-24 0 -32 16q-10 30 -10 78l8 242l-196 -122q-62 -38 -90 -38q-22 0 -41 23t-19 47q0 34 78 82l210 130l-300 188q-62 40 -62 68z" />
<glyph unicode="+" horiz-adv-x="1172" d="M14 546q0 26 42 78q124 158 230 180q38 6 76 6q62 0 124 -22l8 292q2 70 23 103t85 57q34 14 58 14q18 0 28 -10q20 -18 20 -84l-12 -482q58 -28 118 -30h4q58 0 118 58q64 60 104 60q24 0 55 -15t31 -35q0 -24 -54 -76q-180 -172 -350 -172q-16 0 -32 2l-4 -200 q-2 -66 -26 -100t-84 -58q-38 -14 -62 -14q-16 0 -26 8q-16 14 -16 70v14l8 356q-8 4 -38 22q-110 62 -152 62q-32 0 -67 -35t-67 -63q-22 -20 -58 -20q-16 0 -34 4q-50 10 -50 30z" />
<glyph unicode="," horiz-adv-x="624" d="M102 250q0 28 52 72q58 48 96 48q6 0 12 -2q68 -16 128 -70q112 -100 112 -244v-20q-6 -124 -80 -240q-40 -64 -100 -108q-22 -16 -54 -16q-18 0 -40 6q-48 12 -48 34t48 76q6 6 10 14q46 74 50 158v14q0 108 -84 182q-34 20 -98 82q-4 6 -4 14z" />
<glyph unicode="-" horiz-adv-x="1172" d="M46 550q0 4 2 8q10 30 40 66q158 192 280 192q10 0 22 -2q128 -20 256 -92q80 -44 160 -70q20 -6 40 -6q60 0 122 58q32 30 68 52q18 10 38 10q22 0 48 -12q36 -18 36 -38q0 -24 -54 -76q-184 -176 -320 -176q-124 0 -310 104q-108 62 -152 62q-30 0 -70 -38 q-30 -32 -62 -60q-22 -20 -60 -20q-16 0 -34 4q-50 8 -50 34z" />
<glyph unicode="." horiz-adv-x="700" d="M192 162q0 34 55 74t91 40q40 0 92 -52l122 -122q50 -50 50 -80q0 -32 -57 -71t-91 -39q-38 0 -92 52l-122 120q-48 48 -48 78z" />
<glyph unicode="/" horiz-adv-x="1118" d="M-6 -180q10 34 30 70l912 1542q34 56 65 79t89 23q64 0 64 -28q0 -24 -30 -72l-914 -1542q-60 -102 -156 -104q-32 0 -48 8q-12 6 -12 18v6z" />
<glyph unicode="0" horiz-adv-x="1488" d="M52 456v12q0 366 344 700q184 178 426 252q40 12 76 14h4q14 0 22 -14q6 -14 0 -44q-8 -46 -40 -72q108 -44 223 -124t183 -162l14 -18q134 -168 134 -332q0 -38 -8 -76q-50 -258 -294 -428q-242 -168 -528 -168h-20q-308 6 -446 180q-86 110 -90 280zM264 548 q0 -190 128 -290q112 -88 304 -94h22q176 0 310 88q154 102 190 280q6 26 6 54q0 130 -116 280l-8 10q-72 88 -183 164t-213 112q-56 20 -68 36q-204 -130 -312 -376q-60 -138 -60 -264z" />
<glyph unicode="1" horiz-adv-x="998" d="M-20 1020v12q4 50 38 76q22 18 80 38l582 200q32 10 54 10q46 0 46 -46l-2 -1152l110 14q26 4 44 4q22 0 34 -6q16 -8 16 -26t-12 -42q-36 -84 -156 -98l-180 -20q-30 -4 -44 -4q-10 0 -14 2q-12 6 -12 42l2 1134l-482 -164q-48 -16 -74 -18q-18 -2 -26 12q-4 10 -4 32z " />
<glyph unicode="2" horiz-adv-x="1444" d="M122 100q0 28 40 70q128 136 526 462l72 60q106 84 138 114q76 70 122 132q60 80 60 130q0 84 -124 106q-44 8 -96 8q-44 0 -92 -6q-128 -18 -236 -70q-138 -70 -164 -170q-16 -64 -43 -95t-93 -47q-28 -8 -48 -8q-32 0 -34 22q-2 8 -2 16q0 26 10 60q48 188 272 318 q184 108 410 140q76 10 138 10q100 0 176 -26q140 -50 140 -174v-10q-8 -184 -344 -470l-552 -468q328 -78 522 -78h36q188 8 214 118q16 66 42 97t90 47q30 8 50 8q30 0 32 -20q2 -16 2 -32q0 -22 -4 -44q-74 -324 -522 -342h-44q-254 0 -652 104q-42 12 -42 38z" />
<glyph unicode="3" horiz-adv-x="1346" d="M-34 96q0 22 30 62q48 60 94 64q20 2 38 2q28 0 50 -4q182 -32 324 -32q144 0 274 38q156 46 237 129t81 183q0 110 -96 172q-78 50 -198 58q-16 2 -34 2q-110 0 -260 -46q-104 -44 -130 -44q-32 0 -32 54v6q4 68 64 98l118 40q200 74 234 144q8 14 8 30q0 30 -34 58 q-38 30 -94 44q-40 10 -86 10q-44 0 -92 -8q-98 -18 -176 -90q-30 -30 -68 -50q-16 -10 -36 -10q-22 0 -48 12q-38 18 -38 38q0 22 58 76q150 140 324 180q98 20 180 20q204 0 290 -108q34 -42 34 -92q0 -96 -102 -194q174 0 288 -72q140 -86 140 -254q0 -196 -194 -352 q-154 -124 -380 -192q-150 -46 -342 -46q-158 0 -346 32q-46 8 -70 24q-10 6 -10 18z" />
<glyph unicode="4" horiz-adv-x="1366" d="M6 380q0 24 26 52l810 862q50 54 116 60h14q52 0 52 -44v-716q168 -20 228 -96q24 -32 36 -74q2 -4 2 -10q0 -34 -64 -76q-54 -36 -86 -36q-42 0 -86 64q-18 18 -30 26l-2 -234l112 14q14 2 30 2q22 0 44 -4q18 -4 18 -22t-12 -46q-40 -86 -154 -98l-182 -20 q-30 -4 -46 -4q-10 0 -14 2q-12 6 -10 42l2 408h-56q-288 -6 -668 -106q-14 -4 -24 -4q-34 0 -48 30q-8 14 -8 28zM322 534q270 54 488 66v452z" />
<glyph unicode="5" horiz-adv-x="1370" d="M52 542q0 -8 26 182l48 366q12 94 26 164q6 32 65 74t93 42q90 -2 320 -52q338 -74 412 -74q18 0 20 4q36 58 62 78q34 26 94 26q70 0 64 -32q-8 -30 -30 -68q-98 -166 -290 -166q-18 0 -36 2q-202 14 -436 64l-148 30l-26 -208l-18 -134q-8 -66 -18 -126 q414 154 666 154q74 0 134 -14q186 -40 186 -198q0 -166 -230 -404q-156 -164 -410 -328q-36 -24 -74 -38q-10 -4 -20 -4q-26 0 -48 30q-16 20 -16 37t16 31q24 24 64 50q412 270 490 478q14 36 14 66q0 28 -10 50q-28 48 -102 64q-44 10 -100 10q-236 0 -676 -178 q-46 -18 -72 -18q-40 0 -40 40z" />
<glyph unicode="6" horiz-adv-x="1370" d="M104 464q0 254 302 600q180 204 502 444q34 24 72 44q12 6 22 6q26 0 52 -26q24 -20 24 -40q0 -12 -10 -24q-22 -26 -60 -54q-218 -162 -378 -322q62 4 118 4q452 0 524 -276q12 -50 12 -100q0 -188 -150 -390q-174 -236 -382 -284q-40 -10 -88 -10h-16q-210 0 -364 104 q-180 120 -180 324zM318 546q0 -158 144 -256q126 -86 304 -86q8 0 24 4q78 20 170 142q110 148 110 298q0 28 -10 68q-54 212 -414 212q-56 0 -118 -6q-40 -4 -50 -2q-160 -212 -160 -374z" />
<glyph unicode="7" horiz-adv-x="1274" d="M-8 1176q0 14 12 26q26 32 60 56q110 82 246 82h12q104 -4 284 -26q206 -28 286 -34q20 -2 40 -2q114 0 200 50q34 20 64 20q20 0 38 -10q30 -16 30 -40q0 -10 -6 -24q-80 -144 -257 -402t-237 -368q-106 -196 -152 -410q-12 -60 -38 -88t-84 -46q-34 -10 -56 -10 q-28 0 -32 18q-2 14 -2 30q0 20 4 46q34 206 162 440q70 130 256 398l84 122q42 62 80 126q-90 -20 -180 -20q-94 0 -322 36q-84 12 -204 26q-28 2 -48 2q-44 0 -64 -10l-82 -46q-12 -6 -24 -6q-24 0 -50 24q-20 22 -20 40z" />
<glyph unicode="8" horiz-adv-x="1334" d="M72 284q0 88 62 180q102 148 324 244q-166 90 -212 220q-16 44 -16 86q0 30 8 60q54 198 328 256q54 10 116 10q86 0 188 -20q160 -32 228 -140q38 -58 38 -132v-14q-6 -172 -180 -298q196 -82 266 -212q34 -62 34 -126q0 -22 -4 -42q-20 -120 -138 -216 q-98 -76 -234 -118q-126 -38 -286 -38q-54 0 -114 4q-252 20 -356 146q-52 64 -52 150zM284 364q0 -52 36 -96q76 -94 280 -112q64 -6 118 -6q208 0 288 78q26 26 34 66q2 14 2 30q0 104 -148 202q-90 58 -236 94q-4 0 -22 -4q-352 -76 -352 -252zM444 1090q0 -80 104 -172 q70 -62 190 -104q8 -2 26 -14q6 0 18 4q46 8 77 29t43 48t16 46t4 39q0 72 -56 124q-52 46 -134 64q-100 20 -168 20q-72 0 -104 -24q-10 -10 -12 -26q-4 -16 -4 -34z" />
<glyph unicode="9" horiz-adv-x="1352" d="M84 652q0 198 148 400q168 230 382 284q40 10 88 10q226 0 380 -104q180 -122 180 -326q0 -254 -304 -598q-182 -204 -500 -442q-32 -24 -72 -44q-12 -4 -24 -4q-26 0 -50 24q-24 22 -24 40q0 12 10 24q22 28 58 54q222 162 380 320q-64 -4 -122 -4q-460 0 -522 286 q-8 38 -8 80zM296 734q0 -38 8 -68q58 -212 414 -212q56 0 120 6q40 4 50 2q160 212 160 374q0 160 -144 256q-128 86 -304 86q-10 0 -24 -4q-84 -22 -170 -142q-110 -150 -110 -298z" />
<glyph unicode=":" horiz-adv-x="670" d="M148 162q0 34 55 74t91 40q40 0 92 -52l122 -122q50 -50 50 -80q0 -32 -57 -71t-91 -39q-38 0 -92 52l-122 120q-48 48 -48 78zM148 714q0 34 55 74t91 40q40 0 92 -52l122 -122q50 -50 50 -80q0 -32 -57 -73t-93 -41t-90 54l-122 122q-48 48 -48 78z" />
<glyph unicode=";" horiz-adv-x="664" d="M112 788q0 34 55 74t91 40q40 0 92 -52l122 -122q50 -50 50 -80q0 -32 -57 -73t-93 -41t-90 54l-122 122q-48 48 -48 78zM180 250q0 28 52 72q58 48 96 48q6 0 12 -2q68 -16 128 -70q112 -100 112 -244v-20q-6 -124 -80 -240q-40 -64 -100 -108q-22 -16 -54 -16 q-18 0 -40 6q-48 12 -48 34t48 76q6 6 10 14q46 74 50 158v14q0 108 -84 182q-34 20 -98 82q-4 6 -4 14z" />
<glyph unicode="?" horiz-adv-x="1440" d="M216 824q0 26 10 60q48 188 272 318q186 106 412 136q74 10 136 10q104 0 182 -28q138 -50 138 -170v-16q-14 -194 -350 -464q-48 -40 -102 -76q64 -16 142 -50q18 -8 38 -30t22 -22q4 0 8 4q34 26 70 44q14 6 30 6q24 0 50 -18q26 -20 26 -38q0 -12 -8 -22 q-24 -32 -58 -58q-90 -74 -160 -74q-10 0 -20 2q-46 8 -168 52q-108 40 -158 40q-48 0 -96 -30q-16 -10 -30 -10q-26 0 -50 27t-24 53q0 22 22 36q2 2 7 5t7 5l198 132q88 62 142 106q250 200 250 312q0 80 -126 104q-46 8 -98 8q-44 0 -92 -6q-128 -16 -236 -70 q-140 -68 -166 -166q-18 -66 -44 -96t-92 -46q-28 -8 -48 -8q-32 0 -34 22q-2 8 -2 16zM578 158q0 34 55 74t91 40q42 0 94 -52l122 -122q48 -48 48 -78q0 -34 -56 -73t-90 -39q-38 0 -92 52l-124 120q-48 46 -48 78z" />
<glyph unicode="@" horiz-adv-x="1892" d="M94 666q0 224 74 372q150 294 432 364q82 20 170 20q102 0 214 -26q414 -98 680 -410q166 -196 166 -396q0 -198 -172 -382q-208 -224 -808 -338q-12 -4 -24 -4l-24 4l-172 58q-34 12 -34 40q0 36 58 86l82 62l76 62q-288 204 -344 364q-24 70 -24 128q0 188 232 286 q122 50 254 50q252 0 362 -146q46 -60 46 -148q0 -74 -34 -166q-70 -202 -424 -490l56 -18q680 138 680 486q0 156 -152 334q-238 276 -598 370q-100 26 -186 26q-64 0 -120 -14q-162 -40 -234 -270q-28 -86 -28 -206q0 -208 80 -522q8 -30 8 -58q0 -14 -2 -28 q-4 -42 -82 -80q-48 -22 -74 -22q-20 0 -28 12q-22 28 -32 74q-74 302 -74 526zM646 732q0 -48 34 -112q62 -114 296 -284q122 138 140 236q6 28 6 54q0 132 -146 184q-72 26 -150 26q-180 0 -180 -104z" />
<glyph unicode="A" horiz-adv-x="1470" d="M44 286q0 186 274 346q258 150 682 218q-42 160 -114 272q-12 -8 -24 -12q-52 -24 -58 -30q-36 -28 -72 -46q-12 -6 -24 -6q-24 0 -51 22t-27 42q0 8 6 18q48 60 130 102l72 36q56 26 58 30q34 28 86 36q12 2 22 2q32 0 46 -14q126 -168 178 -426q28 -4 28 -30 q0 -18 -12 -42v-2h-2q46 -312 46 -552q38 18 74 28q6 2 10 2q28 0 40 -42q6 -16 6 -30q0 -26 -20 -46q-18 -18 -70 -44l-120 -62q-54 -28 -84 -28q-36 0 -44 48l-4 78q-2 40 -8 124q-194 -182 -434 -240q-106 -26 -200 -26q-150 0 -260 68l-40 30q-90 76 -90 176zM256 364 q0 -18 8 -36q12 -36 54 -74q16 -14 32 -22q80 -50 186 -50q158 0 306 88q86 52 148 130l66 92q-12 118 -26 206q-434 -58 -650 -186q-124 -76 -124 -148z" />
<glyph unicode="B" horiz-adv-x="1362" d="M-84 1106q0 10 4 26q16 80 126 112l206 60q26 8 44 8q48 0 48 -44q0 -4 -1 -23t-3 -50t-2 -69q96 100 222 150q92 34 180 34q44 0 88 -8q102 -20 160 -88l8 -10q32 -44 32 -94q0 -90 -88 -196q152 -4 246 -80q102 -82 106 -232q2 -198 -156 -356q-134 -136 -340 -206 q-124 -42 -276 -42q-132 0 -288 32q-22 -2 -32 11t-6 31v18q0 172 -34 472q-38 316 -38 456q0 50 4 98l-106 -30q-44 -12 -78 -12q-26 -2 -26 32zM342 980q4 -108 36 -396q30 -250 30 -396q116 -22 210 -22q256 0 382 142q80 92 78 210q-4 104 -76 168q-68 58 -174 58 q-84 0 -290 -80q-12 -4 -20 -4q-30 0 -36 54q-2 10 -2 18q0 54 44 74l100 44q158 76 184 148q4 12 4 26q0 28 -22 56l-6 8q-28 34 -92 48q-26 6 -50 6q-100 0 -174 -86q-68 -76 -124 -76h-2z" />
<glyph unicode="C" horiz-adv-x="1308" d="M64 734v28q10 396 362 540q80 34 182 34q182 0 426 -104q38 -16 64 -42q6 -6 6 -16q0 -26 -42 -68q-56 -54 -98 -54h-8q-42 4 -84 22q-198 84 -322 84q-182 0 -236 -132q-36 -88 -38 -194v-22q0 -208 110 -398q124 -216 306 -216q174 0 350 228q64 84 138 84q10 0 20 -2 q54 -8 54 -32q0 -4 -2 -8q-12 -28 -40 -66q-260 -332 -484 -374q-56 -10 -110 -10q-200 0 -348 152q-128 136 -178 344q-28 108 -28 222z" />
<glyph unicode="D" horiz-adv-x="1360" d="M78 348q0 92 46 206q96 234 534 550q-174 148 -322 260q-20 14 -20 34q0 18 18 44q36 50 102 72l262 86q42 14 76 16q16 0 23 -14t5 -42q-6 -52 -40 -78q-22 -16 -82 -36l-54 -18q538 -424 642 -720q46 -136 46 -244q0 -132 -68 -224q-98 -132 -274 -200 q-156 -62 -336 -62q-368 0 -506 200q-52 74 -52 170zM294 424q0 -166 204 -238q114 -40 240 -40q250 0 334 114q44 62 44 152q0 62 -22 140q-54 184 -336 460q-344 -248 -424 -424q-40 -92 -40 -164z" />
<glyph unicode="E" horiz-adv-x="1424" d="M-16 696q0 22 28 60q56 72 140 72h10q8 90 42 170q90 212 314 304q82 34 184 34q180 0 424 -104q72 -30 72 -58q0 -24 -44 -68q-54 -54 -96 -54h-8q-42 4 -86 22q-196 84 -322 84q-74 0 -138 -32q-70 -36 -98 -100q-36 -88 -36 -200v-22q514 -66 620 -66q22 0 26 2v10 q0 56 20 88q22 34 82 58q40 16 64 16t32 -16q14 -32 16 -76v-4v-8q-14 -100 -270 -142q-202 -34 -434 -34q-66 0 -134 2q4 -10 4 -16q62 -238 218 -362q76 -60 174 -60q176 0 348 228q40 50 66 68q26 16 64 16q14 0 28 -2q52 -6 52 -30q0 -4 -2 -10q-12 -32 -38 -66 q-258 -332 -484 -374q-58 -10 -110 -10q-202 0 -346 152q-124 132 -180 344q-16 66 -26 136q-12 0 -92 10q-46 6 -72 20q-12 4 -12 18z" />
<glyph unicode="F" horiz-adv-x="1068" d="M62 366q0 22 30 62q54 70 130 70q16 0 32 -2q-16 76 -38 164q-54 228 -88 428q-12 78 -12 144q0 174 95 281t263 107q130 0 312 -62q102 -34 129 -69t31 -143l8 -164v-22q0 -52 -16 -80q-20 -34 -84 -60q-42 -16 -66 -16q-22 0 -30 14q-16 32 -18 76l-6 134l-8 132 q-236 94 -326 94q-46 0 -54 -20q-18 -48 -18 -120q0 -66 14 -150q26 -148 156 -710l182 -38q68 -14 82 -14h2v10q0 56 20 88q24 34 84 58q40 16 63 16t31 -16q14 -32 16 -76q0 -10 -2 -14q-14 -88 -194 -130q-112 -28 -256 -32q44 -262 46 -430v-10q0 -60 -20 -92 q-22 -36 -84 -62q-36 -12 -58 -12q-20 0 -30 8q-20 16 -22 84q-2 210 -64 518q-64 2 -152 16q-44 8 -70 22q-10 6 -10 18z" />
<glyph unicode="G" horiz-adv-x="1426" d="M82 724q0 28 2 56q16 258 202 408q154 126 376 126q172 0 392 -94q38 -16 64 -42q6 -6 6 -16q0 -26 -42 -68q-54 -54 -98 -54h-8q-40 4 -84 22q-194 82 -316 86h-14q-134 0 -196 -72q-58 -70 -68 -222q-2 -26 -2 -54q0 -166 76 -330q136 -294 342 -294q138 0 220 78 q114 110 114 340q0 46 -4 94v12q0 78 94 120q38 16 64 16q46 0 56 -54l64 -312q24 -130 30 -264v-20q0 -160 -116 -362q-60 -104 -154 -106h-14q-26 0 -40 6q-16 8 -12 24q6 30 28 70q92 164 92 336q0 52 -6 104q-34 -44 -62 -70q-194 -182 -446 -182q-150 0 -278 104 q-112 92 -180 242q-82 182 -82 372z" />
<glyph unicode="H" horiz-adv-x="1278" d="M-66 1472q0 46 82 94q64 38 146 60q40 12 66 26q44 24 80 24h14q42 -8 42 -44l6 -370q4 -184 10 -368q78 152 196 256q142 126 288 126q164 0 240 -162q50 -106 50 -288q0 -300 -174 -664q60 -6 120 -10q80 -8 114 -24q12 -6 12 -20q0 -20 -26 -56q-52 -74 -150 -74 q-14 0 -30 2q-54 4 -160 14l-16 2q-26 4 -56 12q-6 4 12 52q142 390 142 672q0 352 -166 372h-8q-38 0 -78 -36q-156 -142 -232 -456q-58 -234 -62 -518q-2 -84 -106 -126q-36 -12 -58 -12q-48 0 -50 56l-24 1116q-4 172 -6 346q-18 -6 -16 -6q-44 -22 -138 -58 q-8 -2 -14 -2q-26 0 -44 38q-6 12 -6 26z" />
<glyph unicode="I" horiz-adv-x="1298" d="M74 1288v2q0 8 10 12q14 4 40 2q66 -8 116 -80q0 -34 36 -34q30 0 84 22l178 76q188 38 372 46h12q172 0 248 -156q12 -24 14 -50q2 -10 -12 -14q-14 -2 -42 2q-80 14 -114 88q-2 6 -26 6q-20 0 -56 -4q-78 -10 -178 -30l48 -1006q52 6 100 6q234 0 310 -154 q14 -28 14 -50q0 -8 -12 -12q-14 -2 -42 2q-82 14 -114 86q-2 6 -24 6q-68 0 -338 -54q-184 -36 -332 -44h-14q-144 0 -216 126q-16 30 -20 50q-2 10 11 15t41 1q70 -8 116 -82q0 -34 36 -34q30 0 84 22l178 76l4 2h4l-44 962q0 16 -12 28q-10 8 -58 0q-60 -10 -116 -10 t-112 10q-102 16 -156 116q-14 26 -18 50z" />
<glyph unicode="J" horiz-adv-x="630" d="M-136 -340q0 22 44 74q258 302 324 550q34 120 40 282v102v186v154v86v92l-184 -24q-22 -2 -41 -2t-35 2q-18 4 -18 22t14 48q38 84 156 98q126 14 254 32q24 2 38 2t20 -2q10 -6 10 -34v-10q0 -98 -1 -193v-63q0 -63 1 -124q2 -58 2 -112q0 -348 -46 -510 q-78 -274 -376 -618q-40 -46 -66 -62q-24 -14 -56 -14q-14 0 -32 4q-48 10 -48 34z" />
<glyph unicode="K" horiz-adv-x="1286" d="M-58 1472q0 46 82 94q64 38 146 60q40 12 66 26q44 24 80 24h14q42 -8 42 -44l6 -384l16 -640q88 132 264 314q160 164 160 232q0 22 -12 62t-12 66q0 42 80 84q48 26 74 26q20 0 30 -12q56 -64 56 -156q0 -72 -44 -134q-52 -74 -150 -178q-124 -134 -156 -172l432 -598 l52 28q44 24 74 32q6 2 12 2q28 0 42 -40q6 -18 6 -32q0 -42 -86 -88l-140 -74q-34 -18 -74 -20q-36 0 -50 18l-408 560l-24 -28q-98 -188 -116 -408q-6 -84 -108 -124q-34 -12 -58 -12q-48 0 -48 56v2v2v2l-24 1110q-4 172 -6 346q-18 -6 -16 -6q-44 -22 -138 -58 q-8 -2 -14 -2q-26 0 -44 38q-6 12 -6 26z" />
<glyph unicode="L" horiz-adv-x="1066" d="M-88 1484q0 16 8 38q26 82 140 106l212 46q18 4 32 4q50 0 50 -44l24 -1420q88 48 174 48q12 0 24 -2q96 -10 176 -32q0 68 98 110q42 18 66 18q22 0 30 -14q24 -48 24 -120q0 -172 -194 -192h-12q-44 0 -128 24q-58 18 -144 28h-16q-60 0 -110 -50q-66 -70 -126 -80 q-12 -2 -24 -2q-48 0 -48 46l-28 1498l-130 -28q-40 -10 -62 -10q-8 0 -14 2q-22 2 -22 26z" />
<glyph unicode="M" horiz-adv-x="1914" d="M-70 1148q0 26 20 46q14 16 66 46q60 34 186 72q14 4 36 16q46 24 78 24h14q38 -8 40 -44q2 -64 10 -194q10 12 26 38q130 170 298 176h10q198 0 310 -322q46 102 104 174q138 170 304 170h4q248 -4 300 -520q8 -80 8 -174q0 -212 -40 -492l42 18q44 18 76 24h8 q28 0 34 -46v-12q0 -64 -100 -108l-172 -74q-50 -22 -78 -22q-40 0 -40 42q0 8 2 18q54 332 54 570q0 360 -94 516q-52 86 -106 90q-10 0 -38 -32q-156 -188 -190 -632q2 -70 2 -138q0 -112 -6 -216q-6 -86 -108 -124q-32 -14 -56 -14q-46 0 -50 56q-4 76 -4 148 q0 100 8 196q-20 468 -168 658q-60 76 -114 76q-6 0 -28 -28q-164 -214 -164 -744q0 -48 2 -98q0 -26 4 -82q0 -26 1 -65t1 -41q0 -72 -100 -110q-36 -14 -60 -14q-40 0 -52 50q-2 10 -6 84q-10 254 -32 764q-6 126 -12 276q-8 -4 -24 -8q-46 -12 -72 -26q-36 -24 -72 -34 q-6 -2 -12 -2q-28 0 -44 40q-6 14 -6 28z" />
<glyph unicode="N" horiz-adv-x="1444" d="M-74 1152q0 56 94 104q60 30 206 68q20 6 46 18q50 24 80 24q42 0 42 -48q2 -84 6 -238l4 -202q94 174 234 290q168 140 340 140q182 0 268 -152q66 -120 66 -314q0 -276 -152 -652l120 -8q92 -8 102 -28q4 -6 4 -14q0 -20 -24 -54q-56 -78 -104 -78q-6 0 -12 2 q-182 16 -250 16h-22q-50 4 -56 14t14 58q166 390 166 666q0 132 -38 228q-50 130 -158 144q-10 2 -22 2l-122 -48q-178 -136 -268 -440q-68 -232 -74 -518q-2 -92 -108 -132q-34 -12 -58 -12q-46 0 -48 56l-8 326l-6 502q-2 120 -6 290q-46 -10 -134 -42q-44 -22 -72 -28 q-4 -2 -10 -2q-28 0 -38 46q-2 8 -2 16z" />
<glyph unicode="O" horiz-adv-x="1488" d="M52 456v12q0 366 344 700q184 178 426 252q40 12 76 14h4q14 0 22 -14q6 -14 0 -44q-8 -46 -40 -72q108 -44 223 -124t183 -162l14 -18q134 -168 134 -332q0 -38 -8 -76q-50 -258 -294 -428q-242 -168 -528 -168h-20q-308 6 -446 180q-86 110 -90 280zM264 548 q0 -190 128 -290q112 -88 304 -94h22q176 0 310 88q154 102 190 280q6 26 6 54q0 130 -116 280l-8 10q-72 88 -183 164t-213 112q-56 20 -68 36q-204 -130 -312 -376q-60 -138 -60 -264z" />
<glyph unicode="P" horiz-adv-x="1382" d="M-68 1140q0 14 8 36q26 82 140 106l212 46q18 4 32 4q48 0 50 -44l8 -250q168 240 334 294q74 22 142 22q188 0 310 -172q132 -186 136 -434v-14q0 -376 -314 -568q-114 -70 -278 -70h-10q-130 0 -292 42l12 -404q4 -120 -104 -162q-36 -14 -60 -14q-16 0 -26 8 q-22 16 -24 82l-46 1500l-130 -30q-30 -8 -56 -8q-10 0 -20 2q-24 2 -24 28zM390 744l12 -398q20 -2 56 -14q174 -58 294 -58q74 0 128 22q144 56 184 176q28 82 28 184v14q-4 108 -34 204q-66 214 -206 286q-26 14 -58 14q-178 0 -360 -360q-26 -52 -44 -70z" />
<glyph unicode="Q" horiz-adv-x="1362" d="M104 644v24q0 110 34 210q70 216 274 344q118 74 292 74q124 0 276 -38q0 94 106 136q34 14 56 14q18 0 28 -10q22 -16 24 -82l34 -1586l132 28q32 8 56 8q10 0 18 -2q22 -2 22 -28q0 -14 -6 -36q-26 -82 -142 -106l-212 -44q-20 -4 -34 -4q-46 0 -46 42l-16 730 q-166 -216 -322 -260q-64 -20 -124 -20q-154 0 -268 114q-100 100 -146 258q-32 108 -36 234zM316 720q2 -98 36 -202q66 -216 204 -286q28 -14 58 -14q58 0 126 46q108 70 234 316q12 26 20 36l-10 434q-12 2 -34 10q-176 58 -296 58q-74 0 -128 -22q-210 -82 -210 -356 v-20z" />
<glyph unicode="R" horiz-adv-x="1510" d="M-76 1140q0 14 8 36q26 82 140 106l212 46q18 4 32 4q46 0 48 -42l12 -198q254 284 532 284q24 0 50 -2q122 -12 223 -89t151 -189q36 -86 36 -184q0 -32 -4 -64q-16 -130 -116 -240q-136 -150 -370 -200q128 -108 394 -304q36 36 100 46q38 6 56 0q20 -4 20 -20 q-2 -36 -18 -76q-60 -148 -180 -148q-90 0 -206 84l-368 286q-130 92 -260 128l22 -364v-16q0 -104 -100 -144q-40 -16 -64 -16q-26 0 -32 16q-16 30 -18 76l-70 1192l-130 -30q-30 -8 -56 -8q-10 0 -20 2q-24 2 -24 28zM390 862l16 -284q20 8 48 8q30 -6 96 -16 q120 -20 216 -20q80 0 144 14q238 50 246 242v18q0 132 -84 244q-96 126 -234 138h-22l-390 -294q-24 -38 -36 -50z" />
<glyph unicode="S" horiz-adv-x="1464" d="M102 1010q0 50 30 98q128 212 638 224h30l486 -60q42 -10 46 -22t-20 -56q-12 -18 -40 -70l-54 -100q-58 -104 -154 -110q-36 -2 -53 5t-15 23q6 32 28 72l56 100q0 2 4 6q-208 44 -402 44h-16q-202 -2 -314 -44q-28 -10 -36 -16q-4 -8 -4 -16q0 -36 64 -94 q52 -48 108 -82q102 -64 334 -158q226 -92 332 -160q198 -130 198 -246q0 -44 -24 -90q-114 -204 -528 -260q-144 -18 -282 -18q-46 0 -90 2q-144 6 -162 20q-24 18 -50 150l-24 124q-6 28 -6 54q0 16 2 32q6 44 86 82q42 20 68 20q20 0 30 -14q24 -34 44 -136 q8 -52 32 -156q96 -12 194 -12q80 0 160 8q180 18 290 68q38 18 44 28q4 8 4 16q0 22 -20 56q-94 130 -456 272q-440 172 -530 324q-28 46 -28 92z" />
<glyph unicode="T" horiz-adv-x="1262" d="M12 1168q0 22 28 60q52 72 150 72q14 0 30 -2q58 -6 48 -6q20 146 20 218v12v12q0 60 20 90q20 34 84 60q40 16 63 16t31 -16q14 -32 18 -76q0 -66 -28 -286q-2 -14 -6 -56l324 -42q130 -18 148 -18h2v10q0 56 20 88q22 34 82 58q40 16 64 16t32 -16q14 -32 16 -76v-6v-4 q-14 -104 -318 -146q-164 -22 -356 -22h-32q-20 -170 -20 -320v-50q14 -572 402 -572q32 86 58 254q10 66 35 98t89 52q32 10 52 10t28 -10q12 -12 12 -42q0 -18 -4 -42q-42 -280 -114 -374q-54 -72 -102 -92q-40 -18 -134 -20h-18q-276 0 -402 188q-104 156 -114 466v58 q0 162 26 404q-66 4 -148 14q-48 6 -74 18q-12 6 -12 20z" />
<glyph unicode="U" horiz-adv-x="1462" d="M96 1222q0 30 31 66t63 52q34 16 90 16q30 0 64 -4q104 -10 216 -32q6 -12 -12 -56q-180 -432 -180 -722q0 -130 36 -226q50 -134 156 -148q10 -2 20 -2q58 0 122 50q182 142 278 470q74 250 84 550q2 84 106 126q34 12 58 12q48 0 50 -56q2 -88 6 -326l4 -270 q2 -314 10 -522l40 10q54 22 168 58q4 2 10 2q28 0 38 -44q2 -10 2 -20q0 -34 -24 -56q-18 -18 -72 -44q-94 -44 -162 -56q-12 -2 -86 -32q-56 -22 -82 -22q-42 0 -44 48q-10 336 -10 422q-114 -218 -268 -338q-166 -128 -328 -128q-192 0 -274 180q-54 120 -54 314 q0 292 132 680q-46 2 -92 2q-60 4 -82 20q-14 8 -14 26z" />
<glyph unicode="V" horiz-adv-x="1370" d="M80 1274q0 44 76 84q44 26 74 26q18 0 30 -12q28 -32 44 -68l378 -938q44 76 152 216q118 156 198 318q32 62 32 126q0 98 -74 194q-32 40 -40 74q-2 4 -2 8q0 34 68 78q50 34 82 34q42 0 90 -62q96 -126 96 -250q0 -76 -36 -150q-98 -202 -240 -392q-114 -152 -150 -210 q-78 -134 -78 -238q0 -84 -90 -128q-34 -16 -60 -16q-42 0 -60 46l-470 1176q-20 46 -20 84z" />
<glyph unicode="W" horiz-adv-x="1828" d="M-4 1274q0 44 74 84q44 26 74 26q18 0 30 -12q30 -32 46 -68l364 -908q14 32 30 64l36 66q76 144 102 210q40 106 40 196q0 16 -2 32l-94 226q-10 22 -10 44q0 52 66 92q40 26 74 26q42 0 72 -38q94 -124 110 -256l280 -666q8 20 68 134q84 164 132 322q14 44 14 88 q0 120 -96 246q-30 38 -38 72q-2 6 -2 10q0 34 66 78q50 34 82 34q16 0 26 -6q38 -24 64 -56q116 -152 116 -296q0 -52 -14 -102q-58 -190 -156 -380q-76 -144 -102 -204q-48 -122 -48 -220q0 -84 -90 -128q-34 -16 -60 -16q-42 0 -60 46l-276 658q-62 -114 -174 -348 q-46 -106 -46 -212q0 -84 -90 -128q-34 -16 -60 -16q-42 0 -60 46l-470 1176q-18 46 -18 84z" />
<glyph unicode="X" horiz-adv-x="1220" d="M74 1206q0 32 43 75t77 43q14 0 24 -6q38 -26 64 -60l336 -432l120 180l112 174l-112 -6q-16 -2 -30 -2q-64 0 -64 50q0 16 6 38q18 52 56 70q26 12 90 18l234 22h14q40 0 54 -20q6 -10 6 -22q0 -22 -20 -54q-86 -140 -180 -278l-196 -288l424 -546q10 -26 10 -48 q0 -54 -52 -94q-32 -28 -62 -28q-34 0 -64 38l-384 492l-130 -196l-120 -188q92 -16 138 -16q120 -16 120 -110q0 -74 -70 -74q-12 0 -26 2q-272 40 -346 40h-6q-46 8 -46 40q0 22 20 54q126 202 376 564l-370 474q-46 60 -46 94z" />
<glyph unicode="Y" horiz-adv-x="1270" d="M-24 1000q0 28 44 78l168 190q40 46 104 60q16 4 30 4q34 0 48 -28l440 -956l22 116l70 384q42 220 84 382q18 66 44 96t90 44q28 6 46 6q34 0 36 -20q2 -8 2 -16q0 -24 -10 -58q-52 -196 -114 -544q-70 -394 -106 -544q-50 -216 -154 -354q-132 -178 -324 -178 q-166 0 -410 172q-60 42 -60 72q0 34 54 75t90 41q40 0 96 -40q208 -146 308 -146q58 0 94 50q18 26 50 104q-16 22 -24 42l-480 1046l-38 -42q-44 -50 -68 -62q-22 -12 -48 -12q-18 0 -40 6q-44 12 -44 32z" />
<glyph unicode="Z" horiz-adv-x="1404" d="M64 86q0 26 32 64l242 280l440 506l196 226q-202 -12 -404 -22l-402 -20h-24q-32 0 -52 4q-18 4 -17 22t17 50q34 64 81 77t87 15l934 50h6q46 0 58 -28q2 -6 2 -12q0 -28 -32 -64l-244 -282l-242 -280l-418 -480q156 -40 304 -64q110 -20 266 -20h2h-2h2q188 6 214 126 q16 68 41 97t89 47q32 8 52 8q28 0 32 -18q2 -12 2 -26q0 -22 -6 -50q-40 -186 -178 -263t-324 -87l-18 -2h-42q-248 0 -656 108q-38 10 -38 38z" />
<glyph unicode="\" horiz-adv-x="1100" d="M-48 1502v6q0 26 60 26q96 0 156 -102l914 -1542q30 -50 30 -76q0 -12 -12 -18q-16 -8 -52 -8q-58 0 -92 28q-28 20 -62 76l-912 1542q-22 38 -30 68z" />
<glyph unicode="_" horiz-adv-x="1178" d="M60 -258q0 6 2 10q10 28 40 66q160 194 282 194q10 0 20 -2q126 -20 256 -92q74 -40 160 -70q20 -6 42 -6q60 0 120 58q32 30 68 52q18 10 38 10q22 0 48 -12q36 -18 36 -38q0 -24 -54 -76q-182 -174 -318 -174q-100 0 -262 78q-56 28 -172 80q-14 6 -28 6q-30 0 -72 -38 q-30 -30 -62 -60q-26 -20 -66 -20q-12 0 -28 2q-50 10 -50 32z" />
<glyph unicode="a" horiz-adv-x="1470" d="M44 286q0 186 274 346q258 150 682 218q-42 160 -114 272q-12 -8 -24 -12q-52 -24 -58 -30q-36 -28 -72 -46q-12 -6 -24 -6q-24 0 -51 22t-27 42q0 8 6 18q48 60 130 102l72 36q56 26 58 30q34 28 86 36q12 2 22 2q32 0 46 -14q126 -168 178 -426q28 -4 28 -30 q0 -18 -12 -42v-2h-2q46 -312 46 -552q38 18 74 28q6 2 10 2q28 0 40 -42q6 -16 6 -30q0 -26 -20 -46q-18 -18 -70 -44l-120 -62q-54 -28 -84 -28q-36 0 -44 48l-4 78q-2 40 -8 124q-194 -182 -434 -240q-106 -26 -200 -26q-150 0 -260 68l-40 30q-90 76 -90 176zM256 364 q0 -18 8 -36q12 -36 54 -74q16 -14 32 -22q80 -50 186 -50q158 0 306 88q86 52 148 130l66 92q-12 118 -26 206q-434 -58 -650 -186q-124 -76 -124 -148z" />
<glyph unicode="b" horiz-adv-x="1362" d="M-84 1106q0 10 4 26q16 80 126 112l206 60q26 8 44 8q48 0 48 -44q0 -4 -1 -23t-3 -50t-2 -69q96 100 222 150q92 34 180 34q44 0 88 -8q102 -20 160 -88l8 -10q32 -44 32 -94q0 -90 -88 -196q152 -4 246 -80q102 -82 106 -232q2 -198 -156 -356q-134 -136 -340 -206 q-124 -42 -276 -42q-132 0 -288 32q-22 -2 -32 11t-6 31v18q0 172 -34 472q-38 316 -38 456q0 50 4 98l-106 -30q-44 -12 -78 -12q-26 -2 -26 32zM342 980q4 -108 36 -396q30 -250 30 -396q116 -22 210 -22q256 0 382 142q80 92 78 210q-4 104 -76 168q-68 58 -174 58 q-84 0 -290 -80q-12 -4 -20 -4q-30 0 -36 54q-2 10 -2 18q0 54 44 74l100 44q158 76 184 148q4 12 4 26q0 28 -22 56l-6 8q-28 34 -92 48q-26 6 -50 6q-100 0 -174 -86q-68 -76 -124 -76h-2z" />
<glyph unicode="c" horiz-adv-x="1308" d="M64 734v28q10 396 362 540q80 34 182 34q182 0 426 -104q38 -16 64 -42q6 -6 6 -16q0 -26 -42 -68q-56 -54 -98 -54h-8q-42 4 -84 22q-198 84 -322 84q-182 0 -236 -132q-36 -88 -38 -194v-22q0 -208 110 -398q124 -216 306 -216q174 0 350 228q64 84 138 84q10 0 20 -2 q54 -8 54 -32q0 -4 -2 -8q-12 -28 -40 -66q-260 -332 -484 -374q-56 -10 -110 -10q-200 0 -348 152q-128 134 -178 344q-28 108 -28 222z" />
<glyph unicode="d" horiz-adv-x="1360" d="M78 348q0 92 46 206q96 234 534 550q-174 148 -322 260q-20 14 -20 34q0 18 18 44q36 50 102 72l262 86q42 14 76 16q16 0 23 -14t5 -42q-6 -52 -40 -78q-22 -16 -82 -36l-54 -18q538 -424 642 -720q46 -136 46 -244q0 -132 -68 -224q-98 -132 -274 -200 q-156 -62 -336 -62q-368 0 -506 200q-52 74 -52 170zM294 424q0 -166 204 -238q114 -40 240 -40q250 0 334 114q44 62 44 152q0 62 -22 140q-54 184 -336 460q-344 -248 -424 -424q-40 -92 -40 -164z" />
<glyph unicode="e" horiz-adv-x="1424" d="M-16 696q0 22 28 60q56 72 140 72h10q8 90 42 170q90 212 314 304q82 34 184 34q180 0 424 -104q72 -30 72 -58q0 -24 -44 -68q-54 -54 -96 -54h-8q-42 4 -86 22q-196 84 -322 84q-74 0 -138 -32q-70 -36 -98 -100q-36 -88 -36 -200v-22q514 -66 620 -66q22 0 26 2v10 q0 56 20 88q22 34 82 58q40 16 64 16t32 -16q14 -32 16 -76v-4v-8q-14 -100 -270 -142q-202 -34 -434 -34q-66 0 -134 2q4 -10 4 -16q62 -238 218 -362q76 -60 174 -60q176 0 348 228q40 50 66 68q26 16 64 16q14 0 28 -2q52 -6 52 -30q0 -4 -2 -10q-12 -32 -38 -66 q-258 -332 -484 -374q-58 -10 -110 -10q-202 0 -346 152q-124 132 -180 344q-16 66 -26 136q-12 0 -92 10q-46 6 -72 20q-12 4 -12 18z" />
<glyph unicode="f" horiz-adv-x="1068" d="M62 366q0 22 30 62q54 70 130 70q16 0 32 -2q-16 76 -38 164q-54 226 -88 428q-12 78 -12 144q0 174 95 281t263 107q130 0 312 -62q102 -34 129 -69t31 -143l8 -164v-22q0 -52 -16 -80q-20 -34 -84 -60q-42 -16 -66 -16q-22 0 -30 14q-16 32 -18 76l-6 134l-8 132 q-236 94 -326 94q-46 0 -54 -20q-18 -48 -18 -120q0 -66 14 -150q26 -148 156 -710l182 -38q68 -14 82 -14h2v10q0 56 20 88q24 34 84 58q40 16 63 16t31 -16q14 -32 16 -76q0 -10 -2 -14q-14 -88 -194 -130q-112 -28 -256 -32q44 -262 46 -430v-10q0 -60 -20 -92 q-22 -36 -84 -62q-36 -12 -58 -12q-20 0 -30 8q-20 16 -22 84q-2 210 -64 518q-64 2 -152 16q-44 8 -70 22q-10 6 -10 18z" />
<glyph unicode="g" horiz-adv-x="1426" d="M82 724q0 28 2 56q16 258 202 408q154 126 376 126q172 0 392 -94q38 -16 64 -42q6 -6 6 -16q0 -26 -42 -68q-54 -54 -98 -54h-8q-40 4 -84 22q-194 82 -316 86h-14q-134 0 -196 -72q-58 -70 -68 -222q-2 -26 -2 -54q0 -166 76 -330q136 -294 342 -294q138 0 220 78 q114 110 114 340q0 46 -4 94v12q0 78 94 120q38 16 64 16q46 0 56 -54l64 -312q24 -130 30 -264v-20q0 -160 -116 -362q-60 -104 -154 -106h-14q-26 0 -40 6q-16 8 -12 24q6 30 28 70q92 164 92 336q0 52 -6 104q-34 -44 -62 -70q-194 -182 -446 -182q-150 0 -278 104 q-112 92 -180 242q-82 182 -82 372z" />
<glyph unicode="h" horiz-adv-x="1278" d="M-66 1472q0 46 82 94q64 38 146 60q40 12 66 26q44 24 80 24h14q42 -8 42 -44l6 -370q4 -184 10 -368q78 152 196 256q142 126 288 126q164 0 240 -162q50 -106 50 -288q0 -300 -174 -664q60 -6 120 -10q80 -8 114 -24q12 -6 12 -20q0 -20 -26 -56q-52 -74 -150 -74 q-14 0 -30 2q-54 4 -160 14l-16 2q-26 4 -56 12q-6 4 12 52q142 390 142 672q0 352 -166 372h-8q-38 0 -78 -36q-156 -142 -232 -456q-58 -234 -62 -518q-2 -84 -106 -126q-36 -12 -58 -12q-48 0 -50 56l-24 1116q-4 172 -6 346q-18 -6 -16 -6q-44 -22 -138 -58 q-8 -2 -14 -2q-26 0 -44 38q-6 12 -6 26z" />
<glyph unicode="i" horiz-adv-x="626" d="M-6 1134q0 16 10 42q20 54 58 76q26 16 90 26l212 36q26 4 42 4q12 0 20 -2q12 -6 12 -44l10 -1114q0 -68 -22 -102t-86 -58q-40 -14 -62 -14q-24 0 -30 14q-14 32 -14 76l-8 1062l-138 -24q-22 -4 -44 -4q-16 0 -30 2q-20 2 -20 24z" />
<glyph unicode="j" horiz-adv-x="630" d="M-136 -340q0 22 44 74q258 302 324 550q34 120 40 282v102v186v154v86v92l-184 -24q-22 -2 -41 -2t-35 2q-18 4 -18 22t14 48q38 84 156 98q126 14 254 32q24 2 38 2t20 -2q10 -6 10 -34v-10q0 -98 -1 -193v-63q0 -63 1 -124q2 -58 2 -112q0 -348 -46 -510 q-78 -274 -376 -618q-40 -46 -66 -62q-24 -14 -56 -14q-14 0 -32 4q-48 10 -48 34z" />
<glyph unicode="k" horiz-adv-x="1286" d="M-58 1472q0 46 82 94q64 38 146 60q40 12 66 26q44 24 80 24h14q42 -8 42 -44l6 -384l16 -640q88 132 264 314q160 164 160 232q0 22 -12 62t-12 66q0 42 80 84q48 26 74 26q20 0 30 -12q56 -64 56 -156q0 -72 -44 -134q-52 -74 -150 -178q-124 -134 -156 -172l432 -598 l52 28q44 24 74 32q6 2 12 2q28 0 42 -40q6 -18 6 -32q0 -42 -86 -88l-140 -74q-34 -18 -74 -20q-36 0 -50 18l-408 560l-24 -28q-98 -188 -116 -408q-6 -84 -108 -124q-34 -12 -58 -12q-48 0 -48 56v2v2v2l-24 1110q-4 172 -6 346q-18 -6 -16 -6q-44 -22 -138 -58 q-8 -2 -14 -2q-26 0 -44 38q-6 12 -6 26z" />
<glyph unicode="l" horiz-adv-x="1066" d="M-88 1484q0 16 8 38q26 82 140 106l212 46q18 4 32 4q50 0 50 -44l24 -1420q88 48 174 48q12 0 24 -2q96 -10 176 -32q0 68 98 110q42 18 66 18q22 0 30 -14q24 -48 24 -120q0 -172 -194 -192h-12q-44 0 -128 24q-58 18 -144 28h-16q-60 0 -110 -50q-66 -70 -126 -80 q-12 -2 -24 -2q-48 0 -48 46l-28 1498l-130 -28q-40 -10 -62 -10q-8 0 -14 2q-22 2 -22 26z" />
<glyph unicode="m" horiz-adv-x="1914" d="M-70 1150q0 24 18 44q16 16 68 46q60 34 186 72q14 4 36 16q46 24 78 24h14q38 -8 40 -44q2 -64 10 -194q10 12 26 38q130 170 298 176h10q198 0 310 -322q46 102 104 174q138 170 304 170h4q248 -4 300 -520q8 -80 8 -174q0 -212 -40 -492l42 18q44 18 76 24h8 q28 0 34 -46v-12q0 -64 -100 -108l-172 -74q-50 -22 -78 -22q-40 0 -40 42q0 8 2 18q54 332 54 570q0 360 -94 516q-52 86 -106 90q-10 0 -38 -32q-156 -188 -190 -632q2 -70 2 -138q0 -112 -6 -216q-6 -86 -108 -124q-32 -14 -56 -14q-46 0 -50 56q-4 76 -4 148 q0 100 8 196q-20 468 -168 658q-60 76 -114 76q-6 0 -28 -28q-164 -214 -164 -744q0 -48 2 -98q0 -26 4 -82q0 -26 1 -65t1 -41q0 -72 -100 -110q-36 -14 -60 -14q-40 0 -52 50q-2 10 -6 84q-10 254 -32 764q-6 126 -12 276q-8 -4 -24 -8q-46 -12 -72 -26q-36 -24 -72 -34 q-6 -2 -12 -2q-28 0 -44 40q-6 16 -6 30z" />
<glyph unicode="n" horiz-adv-x="1444" d="M-74 1152q0 56 94 104q60 30 206 68q20 6 46 18q50 24 80 24q42 0 42 -48q2 -84 6 -238l4 -202q94 174 234 290q168 140 340 140q182 0 268 -152q66 -120 66 -314q0 -276 -152 -652l120 -8q92 -8 102 -28q4 -6 4 -14q0 -20 -24 -54q-56 -78 -104 -78q-6 0 -12 2 q-182 16 -250 16h-22q-50 4 -56 14t14 58q166 390 166 666q0 132 -38 228q-50 130 -158 144q-10 2 -22 2l-122 -48q-178 -136 -268 -440q-68 -232 -74 -518q-2 -92 -108 -132q-34 -12 -58 -12q-46 0 -48 56l-8 326l-6 502q-2 120 -6 290q-46 -10 -134 -42q-44 -22 -72 -28 q-4 -2 -10 -2q-28 0 -38 46q-2 8 -2 16z" />
<glyph unicode="o" horiz-adv-x="1488" d="M52 456v12q0 366 344 700q184 178 426 252q40 12 76 14h4q14 0 22 -14q6 -14 0 -44q-8 -46 -40 -72q108 -44 223 -124t183 -162l14 -18q134 -168 134 -332q0 -38 -8 -76q-50 -258 -294 -428q-242 -168 -528 -168h-20q-308 6 -446 180q-86 110 -90 280zM264 548 q0 -190 128 -290q112 -88 304 -94h22q176 0 310 88q154 102 190 280q6 26 6 54q0 130 -116 280l-8 10q-72 88 -183 164t-213 112q-56 20 -68 36q-204 -130 -312 -376q-60 -138 -60 -264z" />
<glyph unicode="p" horiz-adv-x="1382" d="M-68 1140q0 14 8 36q26 82 140 106l212 46q18 4 32 4q48 0 50 -44l8 -250q168 240 334 294q74 22 142 22q188 0 310 -172q132 -186 136 -434v-14q0 -376 -314 -568q-118 -70 -286 -70q-132 0 -294 42l12 -404q4 -120 -104 -162q-36 -14 -60 -14q-16 0 -26 8 q-22 16 -24 82l-46 1500l-130 -30q-30 -8 -56 -8q-10 0 -20 2q-24 2 -24 28zM390 744l12 -398q20 -2 56 -14q174 -58 294 -58q74 0 128 22q144 56 184 176q28 82 28 184v14q-4 108 -34 204q-66 214 -206 286q-26 14 -58 14q-178 0 -360 -360q-26 -52 -44 -70z" />
<glyph unicode="q" horiz-adv-x="1362" d="M104 644v24q0 110 34 210q70 216 274 344q118 74 292 74q124 0 276 -38q0 94 106 136q34 14 56 14q18 0 28 -10q22 -16 24 -82l34 -1586l132 28q32 8 56 8q10 0 18 -2q22 -2 22 -28q0 -14 -6 -36q-26 -82 -142 -106l-212 -44q-20 -4 -34 -4q-46 0 -46 42l-16 730 q-166 -216 -322 -260q-64 -20 -124 -20q-154 0 -268 114q-100 100 -146 258q-32 108 -36 234zM316 720q2 -98 36 -202q66 -216 204 -286q28 -14 58 -14q58 0 126 46q108 70 234 316q12 26 20 36l-10 434q-12 2 -34 10q-176 58 -296 58q-74 0 -128 -22q-210 -82 -210 -356 v-20z" />
<glyph unicode="r" horiz-adv-x="1510" d="M-76 1140q0 14 8 36q26 82 140 106l212 46q18 4 32 4q46 0 48 -42l12 -198q254 284 532 284q24 0 50 -2q122 -12 223 -89t151 -189q36 -86 36 -184q0 -32 -4 -64q-16 -130 -116 -240q-136 -150 -370 -200q128 -108 394 -304q36 36 100 46q38 6 56 0q20 -4 20 -20 q-2 -36 -18 -76q-60 -148 -180 -148q-90 0 -206 84l-368 286q-130 92 -260 128l22 -364v-16q0 -104 -100 -144q-40 -16 -64 -16q-26 0 -32 16q-16 30 -18 76l-70 1192l-130 -30q-30 -8 -56 -8q-10 0 -20 2q-24 2 -24 28zM390 862l16 -284q20 8 48 8q30 -6 96 -16 q120 -20 216 -20q80 0 144 14q238 50 246 242v18q0 132 -84 244q-96 126 -234 138h-22l-390 -294q-24 -38 -36 -50z" />
<glyph unicode="s" horiz-adv-x="1464" d="M102 1010q0 50 30 98q128 212 638 224h30l486 -60q42 -10 46 -22t-20 -56q-12 -18 -40 -70l-54 -100q-58 -104 -154 -110q-36 -2 -53 5t-15 23q6 32 28 72l56 100q0 2 4 6q-208 44 -402 44h-16q-202 -2 -314 -44q-28 -10 -36 -16q-4 -8 -4 -16q0 -36 64 -94 q52 -48 108 -82q102 -64 334 -158q226 -92 332 -160q198 -130 198 -246q0 -44 -24 -90q-114 -204 -528 -260q-144 -18 -282 -18q-46 0 -90 2q-144 6 -162 20q-24 18 -50 150l-24 124q-6 28 -6 54q0 16 2 32q6 44 86 82q42 20 68 20q20 0 30 -14q24 -34 44 -136 q8 -52 32 -156q96 -12 194 -12q80 0 160 8q180 18 290 68q38 18 44 28q4 8 4 16q0 22 -20 56q-94 130 -456 272q-440 172 -530 324q-28 46 -28 92z" />
<glyph unicode="t" horiz-adv-x="1262" d="M12 1168q0 22 28 60q52 72 150 72q14 0 30 -2q58 -6 48 -6q20 146 20 218v12v12q0 60 20 90q20 34 84 60q40 16 63 16t31 -16q14 -32 18 -76q0 -66 -28 -286q-2 -14 -6 -56l324 -42q130 -18 148 -18h2v10q0 56 20 88q22 34 82 58q40 16 64 16t32 -16q14 -32 16 -76v-6v-4 q-14 -104 -318 -146q-164 -22 -356 -22h-32q-20 -170 -20 -320v-50q14 -572 402 -572q32 86 58 254q10 66 35 98t89 52q32 10 52 10t28 -10q12 -12 12 -42q0 -18 -4 -42q-42 -280 -114 -374q-54 -72 -102 -92q-40 -18 -134 -20h-18q-276 0 -402 188q-104 156 -114 466v58 q0 162 26 404q-66 4 -148 14q-48 6 -74 18q-12 6 -12 20z" />
<glyph unicode="u" horiz-adv-x="1462" d="M96 1222q0 30 31 66t63 52q34 16 90 16q30 0 64 -4q104 -10 216 -32q6 -12 -12 -56q-180 -432 -180 -722q0 -130 36 -226q50 -134 156 -148q10 -2 20 -2q58 0 122 50q182 142 278 470q74 250 84 550q2 84 106 126q34 12 58 12q48 0 50 -56q2 -88 6 -326l4 -270 q2 -314 10 -522l40 10q54 22 168 58q4 2 10 2q28 0 38 -44q2 -10 2 -20q0 -34 -24 -56q-18 -18 -72 -44q-94 -44 -162 -56q-12 -2 -86 -32q-56 -22 -82 -22q-42 0 -44 48q-10 336 -10 422q-114 -218 -268 -338q-166 -128 -328 -128q-192 0 -274 180q-54 120 -54 314 q0 292 132 680q-46 2 -92 2q-60 4 -82 20q-14 8 -14 26z" />
<glyph unicode="v" horiz-adv-x="1370" d="M80 1274q0 44 76 84q44 26 74 26q18 0 30 -12q28 -32 44 -68l378 -938q44 76 152 216q118 156 198 318q32 62 32 126q0 98 -74 194q-32 40 -40 74q-2 4 -2 8q0 34 68 78q50 34 82 34q42 0 90 -62q96 -126 96 -250q0 -76 -36 -150q-98 -202 -240 -392q-114 -152 -150 -210 q-78 -134 -78 -238q0 -84 -90 -128q-34 -16 -60 -16q-42 0 -60 46l-470 1176q-20 46 -20 84z" />
<glyph unicode="w" horiz-adv-x="1848" d="M10 1274q0 44 74 84q44 26 74 26q18 0 30 -12q30 -32 46 -68l364 -908q14 32 30 64l36 66q76 144 102 210q40 106 40 196q0 16 -2 32l-94 226q-10 22 -10 44q0 52 66 92q40 26 74 26q42 0 72 -38q94 -124 110 -256l280 -666q8 20 68 134q84 164 132 322q14 44 14 88 q0 120 -96 246q-30 38 -38 72q-2 6 -2 10q0 34 66 78q50 34 82 34q16 0 26 -6q38 -24 64 -56q116 -152 116 -296q0 -52 -14 -102q-58 -190 -156 -380q-76 -144 -102 -204q-48 -122 -48 -220q0 -84 -90 -128q-34 -16 -60 -16q-42 0 -60 46l-276 658q-62 -114 -174 -348 q-46 -106 -46 -212q0 -84 -90 -128q-34 -16 -60 -16q-42 0 -60 46l-470 1176q-18 46 -18 84z" />
<glyph unicode="x" horiz-adv-x="1220" d="M74 1206q0 32 43 75t77 43q14 0 24 -6q38 -26 64 -60l336 -432l120 180l112 174l-112 -6q-16 -2 -30 -2q-64 0 -64 50q0 16 6 38q18 52 56 70q26 12 90 18l234 22h14q40 0 54 -20q6 -10 6 -22q0 -22 -20 -54q-86 -140 -180 -278l-196 -288l424 -546q10 -26 10 -48 q0 -54 -52 -94q-32 -28 -62 -28q-34 0 -64 38l-384 492l-130 -196l-120 -188q92 -16 138 -16q120 -16 120 -110q0 -74 -70 -74q-12 0 -26 2q-272 40 -346 40h-6q-46 8 -46 40q0 22 20 54q126 202 376 564l-370 474q-46 60 -46 94z" />
<glyph unicode="y" horiz-adv-x="1270" d="M-24 1000q0 28 44 78l168 190q40 46 104 60q16 4 30 4q34 0 48 -28l440 -956l22 116l70 384q42 220 84 382q18 66 44 96t90 44q28 6 46 6q34 0 36 -20q2 -8 2 -16q0 -24 -10 -58q-52 -196 -114 -544q-70 -394 -106 -544q-50 -216 -154 -354q-132 -178 -324 -178 q-166 0 -410 172q-60 42 -60 72q0 34 54 75t90 41q40 0 96 -40q208 -146 308 -146q58 0 94 50q18 26 50 104q-16 22 -24 42l-480 1046l-38 -42q-44 -50 -68 -62q-22 -12 -48 -12q-18 0 -40 6q-44 12 -44 32z" />
<glyph unicode="z" horiz-adv-x="1404" d="M64 86q0 26 32 64l242 280l440 506l196 226q-202 -12 -404 -22l-402 -20h-24q-32 0 -52 4q-18 4 -17 22t17 50q34 64 81 77t87 15l934 50h6q46 0 58 -28q2 -6 2 -12q0 -28 -32 -64l-244 -282l-242 -280l-418 -480q156 -40 304 -64q110 -20 266 -20h2h-2h2q188 6 214 126 q16 68 41 97t89 47q32 8 52 8q28 0 32 -18q2 -12 2 -26q0 -22 -6 -50q-40 -186 -178 -263t-324 -87l-18 -2h-42q-248 0 -656 108q-38 10 -38 38z" />
<glyph unicode="&#xa0;" />
<glyph unicode="&#xaa;" horiz-adv-x="1470" d="M44 286q0 186 274 346q258 150 682 218q-42 160 -114 272q-12 -8 -24 -12q-52 -24 -58 -30q-36 -28 -72 -46q-12 -6 -24 -6q-24 0 -51 22t-27 42q0 8 6 18q48 60 130 102l72 36q56 26 58 30q34 28 86 36q12 2 22 2q32 0 46 -14q126 -168 178 -426q28 -4 28 -30 q0 -18 -12 -42v-2h-2q46 -312 46 -552q38 18 74 28q6 2 10 2q28 0 40 -42q6 -16 6 -30q0 -26 -20 -46q-18 -18 -70 -44l-120 -62q-54 -28 -84 -28q-36 0 -44 48l-4 78q-2 40 -8 124q-194 -182 -434 -240q-106 -26 -200 -26q-150 0 -260 68l-40 30q-90 76 -90 176zM256 364 q0 -18 8 -36q12 -36 54 -74q16 -14 32 -22q80 -50 186 -50q158 0 306 88q86 52 148 130l66 92q-12 118 -26 206q-434 -58 -650 -186q-124 -76 -124 -148z" />
<glyph unicode="&#xad;" horiz-adv-x="1172" d="M46 550q0 4 2 8q10 30 40 66q158 192 280 192q10 0 22 -2q128 -20 256 -92q80 -44 160 -70q20 -6 40 -6q60 0 122 58q32 30 68 52q18 10 38 10q22 0 48 -12q36 -18 36 -38q0 -24 -54 -76q-184 -176 -320 -176q-124 0 -310 104q-108 62 -152 62q-30 0 -70 -38 q-30 -32 -62 -60q-22 -20 -60 -20q-16 0 -34 4q-50 8 -50 34z" />
<glyph unicode="&#xb2;" horiz-adv-x="1444" d="M122 100q0 28 40 70q128 136 526 462l72 60q106 84 138 114q76 70 122 132q60 80 60 130q0 84 -124 106q-44 8 -96 8q-44 0 -92 -6q-128 -18 -236 -70q-138 -70 -164 -170q-16 -64 -43 -95t-93 -47q-28 -8 -48 -8q-32 0 -34 22q-2 8 -2 16q0 26 10 60q48 188 272 318 q184 108 410 140q76 10 138 10q100 0 176 -26q140 -50 140 -174v-10q-8 -184 -344 -470l-552 -468q328 -78 522 -78h36q188 8 214 118q16 66 42 97t90 47q30 8 50 8q30 0 32 -20q2 -16 2 -32q0 -22 -4 -44q-74 -324 -522 -342h-44q-254 0 -652 104q-42 12 -42 38z" />
<glyph unicode="&#xb3;" horiz-adv-x="1346" d="M-34 96q0 22 30 62q48 60 94 64q20 2 38 2q28 0 50 -4q182 -32 324 -32q144 0 274 38q156 46 237 129t81 183q0 110 -96 172q-78 50 -198 58q-16 2 -34 2q-110 0 -260 -46q-104 -44 -130 -44q-32 0 -32 54v6q4 68 64 98l118 40q200 74 234 144q8 14 8 30q0 30 -34 58 q-38 30 -94 44q-40 10 -86 10q-44 0 -92 -8q-98 -18 -176 -90q-30 -30 -68 -50q-16 -10 -36 -10q-22 0 -48 12q-38 18 -38 38q0 22 58 76q150 140 324 180q98 20 180 20q204 0 290 -108q34 -42 34 -92q0 -96 -102 -194q174 0 288 -72q140 -86 140 -254q0 -196 -194 -352 q-154 -124 -380 -192q-150 -46 -342 -46q-158 0 -346 32q-46 8 -70 24q-10 6 -10 18z" />
<glyph unicode="&#xb9;" horiz-adv-x="998" d="M-20 1020v12q4 50 38 76q22 18 80 38l582 200q32 10 54 10q46 0 46 -46l-2 -1152l110 14q26 4 44 4q22 0 34 -6q16 -8 16 -26t-12 -42q-36 -84 -156 -98l-180 -20q-30 -4 -44 -4q-10 0 -14 2q-12 6 -12 42l2 1134l-482 -164q-48 -16 -74 -18q-18 -2 -26 12q-4 10 -4 32z " />
<glyph unicode="&#xba;" horiz-adv-x="1488" d="M52 456v12q0 366 344 700q184 178 426 252q40 12 76 14h4q14 0 22 -14q6 -14 0 -44q-8 -46 -40 -72q108 -44 223 -124t183 -162l14 -18q134 -168 134 -332q0 -38 -8 -76q-50 -258 -294 -428q-242 -168 -528 -168h-20q-308 6 -446 180q-86 110 -90 280zM264 548 q0 -190 128 -290q112 -88 304 -94h22q176 0 310 88q154 102 190 280q6 26 6 54q0 130 -116 280l-8 10q-72 88 -183 164t-213 112q-56 20 -68 36q-204 -130 -312 -376q-60 -138 -60 -264z" />
<glyph unicode="&#xd2;" />
<glyph unicode="&#xd3;" />
<glyph unicode="&#xd4;" />
<glyph unicode="&#xd5;" />
<glyph unicode="&#x152;" horiz-adv-x="2912" d="M1472 696q0 22 28 60q56 72 140 72h10q8 90 42 170q90 212 314 304q82 34 184 34q180 0 424 -104q72 -30 72 -58q0 -24 -44 -68q-54 -54 -96 -54h-8q-42 4 -86 22q-196 84 -322 84q-74 0 -138 -32q-70 -36 -98 -100q-36 -88 -36 -200v-22q514 -66 620 -66q22 0 26 2v10 q0 56 20 88q22 34 82 58q40 16 64 16t32 -16q14 -32 16 -76v-4v-8q-14 -100 -270 -142q-202 -34 -434 -34q-66 0 -134 2q4 -10 4 -16q62 -238 218 -362q76 -60 174 -60q176 0 348 228q40 50 66 68q26 16 64 16q14 0 28 -2q52 -6 52 -30q0 -4 -2 -10q-12 -32 -38 -66 q-258 -332 -484 -374q-58 -10 -110 -10q-202 0 -346 152q-124 132 -180 344q-16 66 -26 136q-12 0 -92 10q-46 6 -72 20q-12 4 -12 18zM52 456v12q0 366 344 700q184 178 426 252q40 12 76 14h4q14 0 22 -14q6 -14 0 -44q-8 -46 -40 -72q108 -44 223 -124t183 -162l14 -18 q134 -168 134 -332q0 -38 -8 -76q-50 -258 -294 -428q-242 -168 -528 -168h-20q-308 6 -446 180q-86 110 -90 280zM264 548q0 -190 128 -290q112 -88 304 -94h22q176 0 310 88q154 102 190 280q6 26 6 54q0 130 -116 280l-8 10q-72 88 -183 164t-213 112q-56 20 -68 36 q-204 -130 -312 -376q-60 -138 -60 -264z" />
<glyph unicode="&#x153;" horiz-adv-x="2912" d="M1472 696q0 22 28 60q56 72 140 72h10q8 90 42 170q90 212 314 304q82 34 184 34q180 0 424 -104q72 -30 72 -58q0 -24 -44 -68q-54 -54 -96 -54h-8q-42 4 -86 22q-196 84 -322 84q-74 0 -138 -32q-70 -36 -98 -100q-36 -88 -36 -200v-22q514 -66 620 -66q22 0 26 2v10 q0 56 20 88q22 34 82 58q40 16 64 16t32 -16q14 -32 16 -76v-4v-8q-14 -100 -270 -142q-202 -34 -434 -34q-66 0 -134 2q4 -10 4 -16q62 -238 218 -362q76 -60 174 -60q176 0 348 228q40 50 66 68q26 16 64 16q14 0 28 -2q52 -6 52 -30q0 -4 -2 -10q-12 -32 -38 -66 q-258 -332 -484 -374q-58 -10 -110 -10q-202 0 -346 152q-124 132 -180 344q-16 66 -26 136q-12 0 -92 10q-46 6 -72 20q-12 4 -12 18zM52 456v12q0 366 344 700q184 178 426 252q40 12 76 14h4q14 0 22 -14q6 -14 0 -44q-8 -46 -40 -72q108 -44 223 -124t183 -162l14 -18 q134 -168 134 -332q0 -38 -8 -76q-50 -258 -294 -428q-242 -168 -528 -168h-20q-308 6 -446 180q-86 110 -90 280zM264 548q0 -190 128 -290q112 -88 304 -94h22q176 0 310 88q154 102 190 280q6 26 6 54q0 130 -116 280l-8 10q-72 88 -183 164t-213 112q-56 20 -68 36 q-204 -130 -312 -376q-60 -138 -60 -264z" />
<glyph unicode="&#x2000;" horiz-adv-x="858" />
<glyph unicode="&#x2001;" horiz-adv-x="1716" />
<glyph unicode="&#x2002;" horiz-adv-x="858" />
<glyph unicode="&#x2003;" horiz-adv-x="1716" />
<glyph unicode="&#x2004;" horiz-adv-x="572" />
<glyph unicode="&#x2005;" horiz-adv-x="428" />
<glyph unicode="&#x2006;" horiz-adv-x="286" />
<glyph unicode="&#x2007;" horiz-adv-x="286" />
<glyph unicode="&#x2008;" horiz-adv-x="214" />
<glyph unicode="&#x2009;" horiz-adv-x="342" />
<glyph unicode="&#x200a;" horiz-adv-x="94" />
<glyph unicode="&#x2010;" horiz-adv-x="1172" d="M46 550q0 4 2 8q10 30 40 66q158 192 280 192q10 0 22 -2q128 -20 256 -92q80 -44 160 -70q20 -6 40 -6q60 0 122 58q32 30 68 52q18 10 38 10q22 0 48 -12q36 -18 36 -38q0 -24 -54 -76q-184 -176 -320 -176q-124 0 -310 104q-108 62 -152 62q-30 0 -70 -38 q-30 -32 -62 -60q-22 -20 -60 -20q-16 0 -34 4q-50 8 -50 34z" />
<glyph unicode="&#x2011;" horiz-adv-x="1172" d="M46 550q0 4 2 8q10 30 40 66q158 192 280 192q10 0 22 -2q128 -20 256 -92q80 -44 160 -70q20 -6 40 -6q60 0 122 58q32 30 68 52q18 10 38 10q22 0 48 -12q36 -18 36 -38q0 -24 -54 -76q-184 -176 -320 -176q-124 0 -310 104q-108 62 -152 62q-30 0 -70 -38 q-30 -32 -62 -60q-22 -20 -60 -20q-16 0 -34 4q-50 8 -50 34z" />
<glyph unicode="&#x2012;" horiz-adv-x="1172" d="M46 550q0 4 2 8q10 30 40 66q158 192 280 192q10 0 22 -2q128 -20 256 -92q80 -44 160 -70q20 -6 40 -6q60 0 122 58q32 30 68 52q18 10 38 10q22 0 48 -12q36 -18 36 -38q0 -24 -54 -76q-184 -176 -320 -176q-124 0 -310 104q-108 62 -152 62q-30 0 -70 -38 q-30 -32 -62 -60q-22 -20 -60 -20q-16 0 -34 4q-50 8 -50 34z" />
<glyph unicode="&#x2013;" horiz-adv-x="1024" d="M204 512v204h616v-204h-616z" />
<glyph unicode="&#x2014;" horiz-adv-x="2048" d="M204 512v204h1640v-204h-1640z" />
<glyph unicode="&#x2018;" horiz-adv-x="658" d="M142 1214v20q10 224 180 350q22 16 54 16q18 0 40 -6q46 -12 46 -34q0 -24 -46 -74q-16 -28 -44 -86q-14 -34 -16 -88v-16q0 -110 84 -182q12 -10 40 -28q60 -38 60 -70q0 -28 -50 -70q-58 -48 -96 -48q-8 0 -14 2q-48 12 -80 36q-24 12 -46 36q-112 92 -112 242z" />
<glyph unicode="&#x2019;" horiz-adv-x="720" d="M154 1482q0 28 52 72q56 46 94 46q8 0 14 -2q70 -16 128 -70q112 -102 112 -242v-20q-6 -130 -80 -242q-24 -38 -36 -50q-40 -48 -68 -62q-24 -14 -52 -14q-18 0 -38 6q-48 12 -48 34t48 76q18 28 44 84q14 40 16 90v14q0 106 -84 182q-36 24 -98 84q-4 6 -4 14z" />
<glyph unicode="&#x201c;" horiz-adv-x="1072" d="M118 1106v16q6 118 88 254q30 46 94 96q24 16 56 16q18 0 38 -4q46 -12 46 -34q0 -20 -46 -76q0 -2 -12 -14q-46 -72 -50 -160v-14q0 -114 86 -182q12 -16 38 -30q62 -42 62 -70t-50 -70q-56 -46 -94 -46q-8 0 -16 2q-44 10 -80 34q-14 6 -48 36q-112 98 -112 246z M562 1214v20q6 130 80 242q20 32 38 48q58 74 126 74q14 0 30 -4q48 -12 48 -34t-48 -74q-16 -28 -44 -86q-14 -34 -16 -88v-14q0 -112 86 -184q20 -16 38 -28q60 -38 60 -70q0 -28 -50 -70q-56 -48 -94 -48q-8 0 -14 2q-46 10 -80 36q-26 12 -48 36q-112 96 -112 242z" />
<glyph unicode="&#x201d;" horiz-adv-x="1124" d="M140 1358q0 28 52 72q58 48 96 48q6 0 12 -2q70 -20 133 -76t85 -122q22 -62 22 -118v-18q-2 -72 -34 -154q-36 -90 -84 -136q-58 -74 -124 -74q-16 0 -32 4q-48 12 -48 32q0 22 48 76q16 26 44 86q16 42 16 98q0 112 -86 188l-38 28q-62 46 -62 68zM584 1470q0 28 50 72 q54 46 96 46q6 0 14 -2q68 -16 128 -70q112 -100 112 -244v-20q-6 -166 -118 -290q-42 -48 -68 -62q-24 -14 -52 -14q-18 0 -38 6q-48 12 -48 32t48 78q2 2 10 14q48 70 52 160v14q0 106 -86 182q-36 24 -96 84q-4 6 -4 14z" />
<glyph unicode="&#x2026;" horiz-adv-x="1782" d="M128 162q0 34 55 74t91 40q40 0 92 -52l122 -122q50 -50 50 -80q0 -32 -57 -71t-91 -39q-38 0 -92 52l-122 120q-48 48 -48 78zM676 230q0 34 58 76q52 40 90 40t92 -52l122 -122q48 -50 48 -80q0 -32 -57 -72t-91 -40q-38 0 -90 54l-122 120q-48 46 -50 76zM1226 300 q0 34 55 74t91 40q40 0 92 -52l122 -122q50 -50 50 -80q0 -32 -57 -71t-91 -39q-38 0 -92 52l-122 120q-48 48 -48 78z" />
<glyph unicode="&#x202f;" horiz-adv-x="342" />
<glyph unicode="&#x205f;" horiz-adv-x="428" />
<glyph unicode="&#x2122;" horiz-adv-x="3176" d="M1192 1148q0 26 20 46q14 16 66 46q60 34 186 72q14 4 36 16q46 24 78 24h14q38 -8 40 -44q2 -64 10 -194q10 12 26 38q130 170 298 176h10q198 0 310 -322q46 102 104 174q138 170 304 170h4q248 -4 300 -520q8 -80 8 -174q0 -212 -40 -492l42 18q44 18 76 24h8 q28 0 34 -46v-12q0 -64 -100 -108l-172 -74q-50 -22 -78 -22q-40 0 -40 42q0 8 2 18q54 332 54 570q0 360 -94 516q-52 86 -106 90q-10 0 -38 -32q-156 -188 -190 -632q2 -70 2 -138q0 -112 -6 -216q-6 -86 -108 -124q-32 -14 -56 -14q-46 0 -50 56q-4 76 -4 148 q0 100 8 196q-20 468 -168 658q-60 76 -114 76q-6 0 -28 -28q-164 -214 -164 -744q0 -48 2 -98q0 -26 4 -82q0 -26 1 -65t1 -41q0 -72 -100 -110q-36 -14 -60 -14q-40 0 -52 50q-2 10 -6 84q-10 254 -32 764q-6 126 -12 276q-8 -4 -24 -8q-46 -12 -72 -26q-36 -24 -72 -34 q-6 -2 -12 -2q-28 0 -44 40q-6 14 -6 28zM12 1168q0 22 28 60q52 72 150 72q14 0 30 -2q58 -6 48 -6q20 146 20 218v12v12q0 60 20 90q20 34 84 60q40 16 63 16t31 -16q14 -32 18 -76q0 -66 -28 -286q-2 -14 -6 -56l324 -42q130 -18 148 -18h2v10q0 56 20 88q22 34 82 58 q40 16 64 16t32 -16q14 -32 16 -76v-6v-4q-14 -104 -318 -146q-164 -22 -356 -22h-32q-20 -170 -20 -320v-50q14 -572 402 -572q32 86 58 254q10 66 35 98t89 52q32 10 52 10t28 -10q12 -12 12 -42q0 -18 -4 -42q-42 -280 -114 -374q-54 -72 -102 -92q-40 -18 -134 -20h-18 q-276 0 -402 188q-104 156 -114 466v58q0 162 26 404q-66 4 -148 14q-48 6 -74 18q-12 6 -12 20z" />
<glyph unicode="&#xe000;" horiz-adv-x="1370" d="M0 1370h1370v-1370h-1370v1370z" />
<glyph unicode="&#xfb01;" horiz-adv-x="1694" d="M1062 1134q0 16 10 42q20 54 58 76q26 16 90 26l212 36q26 4 42 4q12 0 20 -2q12 -6 12 -44l10 -1114q0 -68 -22 -102t-86 -58q-40 -14 -62 -14q-24 0 -30 14q-14 32 -14 76l-8 1062l-138 -24q-22 -4 -44 -4q-16 0 -30 2q-20 2 -20 24zM62 366q0 22 30 62q54 70 130 70 q16 0 32 -2q-16 76 -38 164q-54 226 -88 428q-12 78 -12 144q0 174 95 281t263 107q130 0 312 -62q102 -34 129 -69t31 -143l8 -164v-22q0 -52 -16 -80q-20 -34 -84 -60q-42 -16 -66 -16q-22 0 -30 14q-16 32 -18 76l-6 134l-8 132q-236 94 -326 94q-46 0 -54 -20 q-18 -48 -18 -120q0 -66 14 -150q26 -148 156 -710l182 -38q68 -14 82 -14h2v10q0 56 20 88q24 34 84 58q40 16 63 16t31 -16q14 -32 16 -76q0 -10 -2 -14q-14 -88 -194 -130q-112 -28 -256 -32q44 -262 46 -430v-10q0 -60 -20 -92q-22 -36 -84 -62q-36 -12 -58 -12 q-20 0 -30 8q-20 16 -22 84q-2 210 -64 518q-64 2 -152 16q-44 8 -70 22q-10 6 -10 18z" />
<glyph unicode="&#xfb02;" horiz-adv-x="2134" d="M980 1484q0 16 8 38q26 82 140 106l212 46q18 4 32 4q50 0 50 -44l24 -1420q88 48 174 48q12 0 24 -2q96 -10 176 -32q0 68 98 110q42 18 66 18q22 0 30 -14q24 -48 24 -120q0 -172 -194 -192h-12q-44 0 -128 24q-58 18 -144 28h-16q-60 0 -110 -50q-66 -70 -126 -80 q-12 -2 -24 -2q-48 0 -48 46l-28 1498l-130 -28q-40 -10 -62 -10q-8 0 -14 2q-22 2 -22 26zM62 366q0 22 30 62q54 70 130 70q16 0 32 -2q-16 76 -38 164q-54 226 -88 428q-12 78 -12 144q0 174 95 281t263 107q130 0 312 -62q102 -34 129 -69t31 -143l8 -164v-22 q0 -52 -16 -80q-20 -34 -84 -60q-42 -16 -66 -16q-22 0 -30 14q-16 32 -18 76l-6 134l-8 132q-236 94 -326 94q-46 0 -54 -20q-18 -48 -18 -120q0 -66 14 -150q26 -148 156 -710l182 -38q68 -14 82 -14h2v10q0 56 20 88q24 34 84 58q40 16 63 16t31 -16q14 -32 16 -76 q0 -10 -2 -14q-14 -88 -194 -130q-112 -28 -256 -32q44 -262 46 -430v-10q0 -60 -20 -92q-22 -36 -84 -62q-36 -12 -58 -12q-20 0 -30 8q-20 16 -22 84q-2 210 -64 518q-64 2 -152 16q-44 8 -70 22q-10 6 -10 18z" />
<glyph unicode="&#xfb03;" horiz-adv-x="2762" d="M2130 1134q0 16 10 42q20 54 58 76q26 16 90 26l212 36q26 4 42 4q12 0 20 -2q12 -6 12 -44l10 -1114q0 -68 -22 -102t-86 -58q-40 -14 -62 -14q-24 0 -30 14q-14 32 -14 76l-8 1062l-138 -24q-22 -4 -44 -4q-16 0 -30 2q-20 2 -20 24zM1130 366q0 22 30 62q54 70 130 70 q16 0 32 -2q-16 76 -38 164q-54 226 -88 428q-12 78 -12 144q0 174 95 281t263 107q130 0 312 -62q102 -34 129 -69t31 -143l8 -164v-22q0 -52 -16 -80q-20 -34 -84 -60q-42 -16 -66 -16q-22 0 -30 14q-16 32 -18 76l-6 134l-8 132q-236 94 -326 94q-46 0 -54 -20 q-18 -48 -18 -120q0 -66 14 -150q26 -148 156 -710l182 -38q68 -14 82 -14h2v10q0 56 20 88q24 34 84 58q40 16 63 16t31 -16q14 -32 16 -76q0 -10 -2 -14q-14 -88 -194 -130q-112 -28 -256 -32q44 -262 46 -430v-10q0 -60 -20 -92q-22 -36 -84 -62q-36 -12 -58 -12 q-20 0 -30 8q-20 16 -22 84q-2 210 -64 518q-64 2 -152 16q-44 8 -70 22q-10 6 -10 18zM62 366q0 22 30 62q54 70 130 70q16 0 32 -2q-16 76 -38 164q-54 226 -88 428q-12 78 -12 144q0 174 95 281t263 107q130 0 312 -62q102 -34 129 -69t31 -143l8 -164v-22q0 -52 -16 -80 q-20 -34 -84 -60q-42 -16 -66 -16q-22 0 -30 14q-16 32 -18 76l-6 134l-8 132q-236 94 -326 94q-46 0 -54 -20q-18 -48 -18 -120q0 -66 14 -150q26 -148 156 -710l182 -38q68 -14 82 -14h2v10q0 56 20 88q24 34 84 58q40 16 63 16t31 -16q14 -32 16 -76q0 -10 -2 -14 q-14 -88 -194 -130q-112 -28 -256 -32q44 -262 46 -430v-10q0 -60 -20 -92q-22 -36 -84 -62q-36 -12 -58 -12q-20 0 -30 8q-20 16 -22 84q-2 210 -64 518q-64 2 -152 16q-44 8 -70 22q-10 6 -10 18z" />
<glyph unicode="&#xfb04;" horiz-adv-x="3202" d="M2048 1484q0 16 8 38q26 82 140 106l212 46q18 4 32 4q50 0 50 -44l24 -1420q88 48 174 48q12 0 24 -2q96 -10 176 -32q0 68 98 110q42 18 66 18q22 0 30 -14q24 -48 24 -120q0 -172 -194 -192h-12q-44 0 -128 24q-58 18 -144 28h-16q-60 0 -110 -50q-66 -70 -126 -80 q-12 -2 -24 -2q-48 0 -48 46l-28 1498l-130 -28q-40 -10 -62 -10q-8 0 -14 2q-22 2 -22 26zM1130 366q0 22 30 62q54 70 130 70q16 0 32 -2q-16 76 -38 164q-54 226 -88 428q-12 78 -12 144q0 174 95 281t263 107q130 0 312 -62q102 -34 129 -69t31 -143l8 -164v-22 q0 -52 -16 -80q-20 -34 -84 -60q-42 -16 -66 -16q-22 0 -30 14q-16 32 -18 76l-6 134l-8 132q-236 94 -326 94q-46 0 -54 -20q-18 -48 -18 -120q0 -66 14 -150q26 -148 156 -710l182 -38q68 -14 82 -14h2v10q0 56 20 88q24 34 84 58q40 16 63 16t31 -16q14 -32 16 -76 q0 -10 -2 -14q-14 -88 -194 -130q-112 -28 -256 -32q44 -262 46 -430v-10q0 -60 -20 -92q-22 -36 -84 -62q-36 -12 -58 -12q-20 0 -30 8q-20 16 -22 84q-2 210 -64 518q-64 2 -152 16q-44 8 -70 22q-10 6 -10 18zM62 366q0 22 30 62q54 70 130 70q16 0 32 -2q-16 76 -38 164 q-54 226 -88 428q-12 78 -12 144q0 174 95 281t263 107q130 0 312 -62q102 -34 129 -69t31 -143l8 -164v-22q0 -52 -16 -80q-20 -34 -84 -60q-42 -16 -66 -16q-22 0 -30 14q-16 32 -18 76l-6 134l-8 132q-236 94 -326 94q-46 0 -54 -20q-18 -48 -18 -120q0 -66 14 -150 q26 -148 156 -710l182 -38q68 -14 82 -14h2v10q0 56 20 88q24 34 84 58q40 16 63 16t31 -16q14 -32 16 -76q0 -10 -2 -14q-14 -88 -194 -130q-112 -28 -256 -32q44 -262 46 -430v-10q0 -60 -20 -92q-22 -36 -84 -62q-36 -12 -58 -12q-20 0 -30 8q-20 16 -22 84 q-2 210 -64 518q-64 2 -152 16q-44 8 -70 22q-10 6 -10 18z" />
</font>
</defs>
</svg>
